<svg xmlns="http://www.w3.org/2000/svg" width="100" height="100" viewBox="0 0 173.6 200.13">
  <path  d="M86.8,18.21a85.86,85.86,0,1,0,85.86,85.86A85.86,85.86,0,0,0,86.8,18.21Zm34.73,73.86a9.41,9.41,0,0,1,7,3.67,1.66,1.66,0,0,1,.32,1,1.56,1.56,0,0,1-2.79.94,6.52,6.52,0,0,0-4.52-2.52V92.07Zm-73.29.39h7.6a1.52,1.52,0,1,1,0,3h-7.6v-3Zm-18.16,23.2h-7.5A1.64,1.64,0,0,1,21,114v-20a1.64,1.64,0,0,1,1.62-1.62h1.59v20.2H30c2.63,0,4-1.31,4-3.8s-1.47-3.77-4-3.77H26.49v-2.9h2.56c2.54,0,4-1.22,4-3.34s-1.34-3.34-4-3.34H26.49v-3h2.6c4.66,0,7.23,2.26,7.23,6.37A5.14,5.14,0,0,1,34,103.27a5.74,5.74,0,0,1,3.38,5.57C37.34,113.05,34.55,115.67,30.08,115.67Zm15.94,0H44.46a1.6,1.6,0,0,1-1.62-1.61v-20a1.6,1.6,0,0,1,1.62-1.62H46v23.2Zm2.22-13.2h5.39a1.52,1.52,0,0,1,0,3H48.24v-3Zm8,13.2h-8v-3h8A1.52,1.52,0,1,1,56.19,115.67Zm9.57-1.32a1.58,1.58,0,1,1-3.16,0v-16l3.16,4.53v11.47Zm14.45,0a1.63,1.63,0,0,1-2.93,1L65.76,99h0L62.6,94.48v-0.7a1.58,1.58,0,0,1,1.58-1.58,1.63,1.63,0,0,1,1.29.67L77,109.17h0l3.16,4.52v0.63Zm0-4.5L77,105.29V93.78a1.58,1.58,0,0,1,3.16,0v16Zm14.39,6.26c-5.81-.42-7.91-4.15-7.91-7.67V93.82a1.62,1.62,0,0,1,3.23,0v14.59c0,2.59,1.73,4.28,4.68,4.61v3.06Zm10.11-7.67c0,3.52-2.1,7.24-7.89,7.66V113c2.94-.32,4.66-2,4.66-4.59V93.82a1.62,1.62,0,1,1,3.23,0v14.59Zm14.6-13.28c-4.06.54-6.12,3.54-6.12,9,0,5.65,1.9,8.45,6.12,8.93v3.06c-6.16-.52-9.41-4.64-9.41-12s3.33-11.47,9.41-12v3.07Zm10.19,15.74a2.1,2.1,0,0,1-.54,1.4,10.11,10.11,0,0,1-7.43,3.79V113a6.91,6.91,0,0,0,4.81-2.28v-4.12h-5a1.52,1.52,0,0,1,0-3H128a1.54,1.54,0,0,1,1.52,1.51v5.78Zm14.11-15.75c-4.06.34-5.81,3.06-5.81,9s1.75,8.56,5.81,8.9v3.06c-6-.36-9.11-4.34-9.11-12s3-11.7,9.11-12v3.07Zm2.22,20.94V113c3.76-.49,5.4-3.23,5.4-8.92s-1.64-8.47-5.4-9V92.06c5.85,0.5,8.7,4.44,8.7,12S151.6,115.55,145.83,116.07Z" fill="#ffffff"/>
</svg>