<!-- Generator: Adobe Illustrator 18.1.1, SVG Export Plug-In  -->
<svg version="1.1"
	 xmlns="http://www.w3.org/2000/svg" xmlns:xlink="http://www.w3.org/1999/xlink" xmlns:a="http://ns.adobe.com/AdobeSVGViewerExtensions/3.0/"
	 x="0px" y="0px" width="225px" height="53.2px" viewBox="0 0 225 53.2" enable-background="new 0 0 225 53.2" xml:space="preserve"
	>
<defs>
</defs>
<path fill="#ffffff" d="M139.3,6.4h3.6v30.9h-4.4V7.6C138.4,7.6,138.4,6.4,139.3,6.4z"/>
<path fill="#ffffff" d="M184.3,6.4h3.1v30.9h-3.8l-20.7-23.8v23.8h-4.2V8.2c0,0-0.2-1.8,1.2-1.8h2.4l21,24V7.7
	C183.3,7.7,183.1,6.4,184.3,6.4z"/>
<path fill="#ffffff" d="M205,6.4h15.9v4h-13.1v9.3h12.7v4h-12.7v9.6h13.5v4h-18V8.1C203.3,8.1,203,6.4,205,6.4z"/>
<path fill="#ffffff" d="M36.2,24.3l-1.1-1.1c-0.3-0.3-0.3-0.8,0-1.1c0.3-0.3,0.8-0.3,1.1,0"/>
<g>
	
		<linearGradient id="SVGID_1_" gradientUnits="userSpaceOnUse" x1="53.7682" y1="19.3171" x2="72.7528" y2="19.3171" gradientTransform="matrix(0.9988 -4.810000e-02 4.810000e-02 0.9988 -18.3287 16.4126)">
		<stop  offset="0" style="stop-color:#ffffff"/>
		<stop  offset="1" style="stop-color:#ffffff"/>
	</linearGradient>
	<path fill="url(#SVGID_1_)" d="M35.9,22.4l19.6,19.1c0.3,0.3,0.3,0.8,0,1.1c-0.1,0.2-0.3,0.2-0.5,0.2c-0.2,0-0.4-0.1-0.6-0.2
		l-18.5-18"/>
	
		<linearGradient id="SVGID_2_" gradientUnits="userSpaceOnUse" x1="-200.3077" y1="689.9659" x2="-200.3077" y2="673.4772" gradientTransform="matrix(0.1378 0.986 -0.957 0.1337 766.0772 115.1227)">
		<stop  offset="0" style="stop-color:#ffffff"/>
		<stop  offset="1" style="stop-color:#ffffff"/>
	</linearGradient>
	<path fill="url(#SVGID_2_)" d="M79.1,16.3L91.7,0.3c0.2-0.3,0.7-0.4,1-0.1c0.3,0.2,0.3,0.7,0.1,1L79.9,17.5"/>
</g>
<path fill="#ffffff" d="M80.9,17.2L79,19.6c-0.1,0.1-0.3,0.2-0.4,0.3c-0.2,0-0.4,0-0.5-0.2c-0.3-0.3-0.3-0.7-0.1-1l2.1-2.7"/>
<path fill="#ffffff" d="M16.7,13.2C14,10.7,11.5,10,9.4,10c-2.9,0-4.9,1.5-4.9,3.7c0,5.9,13.4,5.8,13.4,15.7c0,4.9-3.7,8.4-8.7,8.4
	c-3.4,0-6.1-0.9-8.7-2.9v-5.6c2.3,2.9,5.1,4.5,8.2,4.5c3.4,0,5-2.2,5-3.9c0-6.4-13.4-7.1-13.4-15.6c0-5,3.7-8.3,9.4-8.3
	c2.4,0,4.7,0.7,6.9,2.2V13.2z"/>
<path fill="#ffffff" d="M33.3,6.4h2.9v14.2L48.5,7.2c0,0,0.7-0.8,1.8-0.8h4.4L41.3,21l16.8,16.3H52L36.2,22v15.3h-4.4V8.6
	C31.8,8.6,31.8,6.4,33.3,6.4z"/>
<path fill="#ffffff" d="M90.2,6.4h4.5L83.2,21v16.3h-4.4V20.9L67.2,6.4h5.4L80.9,17l8-10.1C88.9,6.9,89.2,6.4,90.2,6.4z"/>
<path fill="#ffffff" d="M108.3,6.4h3.2v27h14v4h-18.4V7.5C107.1,7.5,107.1,6.4,108.3,6.4z"/>
<g>
	<g>
		<path fill="#ffffff" d="M223.9,8.9l-0.4-0.6h-0.3v0.6H223V7.3h0.6c0.3,0,0.5,0.2,0.5,0.5c0,0.3-0.2,0.4-0.4,0.5l0.4,0.7H223.9z
			 M223.9,7.8c0-0.2-0.1-0.3-0.3-0.3h-0.4v0.6h0.4C223.8,8.1,223.9,8,223.9,7.8z"/>
	</g>
	<path fill="#ffffff" d="M223.5,9.6c-0.9,0-1.5-0.7-1.5-1.5c0-0.8,0.7-1.5,1.5-1.5c0.9,0,1.5,0.7,1.5,1.5
		C225,8.9,224.3,9.6,223.5,9.6z M223.5,6.8c-0.7,0-1.3,0.6-1.3,1.3c0,0.7,0.6,1.3,1.3,1.3c0.7,0,1.3-0.6,1.3-1.3
		C224.7,7.4,224.1,6.8,223.5,6.8z"/>
</g>
<g>
	<path fill="#ffffff" d="M3.3,47.4c-0.3-0.4-0.6-0.6-1.1-0.6c-0.5,0-1.1,0.4-1.1,1c0,0.5,0.5,0.8,0.9,1l0.5,0.2c1,0.4,1.7,0.9,1.7,2
		c0,1.2-0.9,2.1-2.1,2.1C1,53,0.1,52.2,0,51.1L0.9,51c0,0.7,0.6,1.3,1.3,1.3c0.7,0,1.2-0.6,1.2-1.3c0-0.7-0.6-1-1.2-1.3l-0.5-0.2
		c-0.8-0.3-1.5-0.8-1.5-1.7c0-1.1,1-1.7,2-1.7C3,46,3.7,46.4,4,47L3.3,47.4z"/>
	<path fill="#ffffff" d="M12.3,46.1h3.6v0.8h-2.8v1.9h2.7v0.8h-2.7v2.5h2.8v0.8h-3.6V46.1z"/>
	<path fill="#ffffff" d="M28.3,52.9h-1l-2-2.8h-0.3v2.8h-0.8v-6.7h1c0.6,0,1.2,0,1.8,0.3c0.6,0.3,0.9,1,0.9,1.6c0,1-0.6,1.8-1.6,1.9
		L28.3,52.9z M24.9,49.3h0.3c0.9,0,1.8-0.2,1.8-1.2c0-1.1-1-1.2-1.8-1.2h-0.2V49.3z"/>
	<path fill="#ffffff" d="M38.3,51.1l2-5h0.9l-2.9,7.1l-2.9-7.1h0.9L38.3,51.1z"/>
	<path fill="#ffffff" d="M49.8,52.9h-0.8v-6.7h0.8V52.9z"/>
	<path fill="#ffffff" d="M63.1,47.4c-0.5-0.4-1.1-0.7-1.8-0.7c-1.5,0-2.7,1.3-2.7,2.7c0,1.5,1.1,2.7,2.6,2.7c0.7,0,1.3-0.2,1.8-0.7
		v1c-0.5,0.3-1.2,0.5-1.8,0.5c-1.9,0-3.5-1.5-3.5-3.5c0-2,1.6-3.5,3.6-3.5c0.6,0,1.2,0.1,1.7,0.4V47.4z"/>
	<path fill="#ffffff" d="M71.2,46.1h3.6v0.8H72v1.9h2.7v0.8H72v2.5h2.8v0.8h-3.6V46.1z"/>
	<path fill="#ffffff" d="M82.9,46.1h1.4c2.1,0,3.8,1.1,3.8,3.3c0,2.3-1.7,3.4-3.8,3.4h-1.4V46.1z M83.8,52.1h0.3
		c1.7,0,3.2-0.6,3.2-2.6c0-2-1.5-2.6-3.2-2.6h-0.3V52.1z"/>
	<path fill="#ffffff" d="M106.8,51.2l-0.8,1.7h-0.9l3.2-7l3.2,7h-0.9l-0.8-1.7H106.8z M108.3,47.7l-1.2,2.7h2.4L108.3,47.7z"/>
	<path fill="#ffffff" d="M120.1,52.9h-0.8v-6.7h1c2.1,0,2.7,0.7,2.7,2c0,1.4-1.1,2-2.4,2h-0.5V52.9z M120.1,49.3h0.3
		c0.9,0,1.8-0.2,1.8-1.2c0-1.1-1-1.2-1.8-1.2h-0.2V49.3z"/>
	<path fill="#ffffff" d="M131,51.2l-0.8,1.7h-0.9l3.2-7l3.2,7h-0.9l-0.8-1.7H131z M132.6,47.7l-1.2,2.7h2.4L132.6,47.7z"/>
	<path fill="#ffffff" d="M147.7,52.9h-1l-2-2.8h-0.3v2.8h-0.8v-6.7h1c0.6,0,1.2,0,1.8,0.3c0.6,0.3,0.9,1,0.9,1.6
		c0,1-0.6,1.8-1.6,1.9L147.7,52.9z M144.3,49.3h0.3c0.9,0,1.8-0.2,1.8-1.2c0-1.1-1-1.2-1.8-1.2h-0.2V49.3z"/>
	<path fill="#ffffff" d="M157.1,52.9h-0.8v-6h-1.6v-0.8h4v0.8h-1.6V52.9z"/>
	<path fill="#ffffff" d="M167.7,48.4L167.7,48.4l-0.8,4.4H166l1.4-7l2.3,5.3l2.3-5.3l1.4,7h-0.9l-0.8-4.4h0l-2,4.6L167.7,48.4z"/>
	<path fill="#ffffff" d="M181.3,46.1h3.6v0.8h-2.8v1.9h2.7v0.8h-2.7v2.5h2.8v0.8h-3.6V46.1z"/>
	<path fill="#ffffff" d="M193,45.8l5,5.3v-5h0.8v7l-5.1-5.3v5H193V45.8z"/>
	<path fill="#ffffff" d="M209,52.9h-0.8v-6h-1.6v-0.8h4v0.8H209V52.9z"/>
	<path fill="#ffffff" d="M221.4,47.4c-0.3-0.4-0.6-0.6-1.1-0.6c-0.5,0-1.1,0.4-1.1,1c0,0.5,0.5,0.8,0.9,1l0.5,0.2
		c1,0.4,1.7,0.9,1.7,2c0,1.2-0.9,2.1-2.1,2.1c-1.1,0-1.9-0.8-2.1-1.9l0.8-0.2c0,0.7,0.6,1.3,1.3,1.3c0.7,0,1.2-0.6,1.2-1.3
		c0-0.7-0.6-1-1.2-1.3l-0.5-0.2c-0.8-0.3-1.5-0.8-1.5-1.7c0-1.1,1-1.7,2-1.7c0.8,0,1.4,0.4,1.7,1L221.4,47.4z"/>
</g>
</svg>
