<?xml version="1.0" encoding="utf-8"?>
<!-- Generator: Adobe Illustrator 16.0.0, SVG Export Plug-In . SVG Version: 6.00 Build 0)  -->
<!DOCTYPE svg PUBLIC "-//W3C//DTD SVG 1.1//EN" "http://www.w3.org/Graphics/SVG/1.1/DTD/svg11.dtd">
<svg version="1.1" id="Layer_1" xmlns="http://www.w3.org/2000/svg" xmlns:xlink="http://www.w3.org/1999/xlink" x="0px" y="0px"
	 fill="#ffffff" width="1000px" height="911.93px" viewBox="0 0 1000 911.93" enable-background="new 0 0 1000 911.93" xml:space="preserve">
<g>
	<path d="M24.89,562.183l13.786-20.845l23.943,6.495L46.99,528.828l13.43-20.617l-23.203,9.056l-16.088-18.979l1.38,24.681
		L0,531.489l23.432,6.163L24.89,562.183z M21.615,470.276l17.472-17.981l22.33,11L49.75,441.681l17.038-17.626l-24.479,4.477
		l-12.125-21.769l-3.272,24.453l-23.921,4.12l21.898,10.539L21.615,470.276z M36.017,379.342l20.591-14.171l19.85,14.888
		l-7.545-23.432L89.3,342.584l-24.991-0.307l-7.702-23.607l-8.005,23.48l-24.198-0.564l19.491,14.428L36.017,379.342z
		 M139.074,209.189l12.793,21.256l1.84-24.325l24.019-5.705l-22.919-9.516l1.689-24.76l-16.063,18.773l-22.333-9.616l12.611,20.718
		l-16.04,18.623L139.074,209.189z M435.668,63.615l18.443-16.344l21.104,12.713l-9.979-22.92l18.446-16.627l-24.558,2.202
		l-9.31-22.28l-5.425,23.607l-24.427,2.431l21.306,12.866L435.668,63.615z M83.618,735.561l4.939-24.505l24.684-2.994
		l-21.615-11.767l4.681-24.042l-18.111,16.982l-21.948-11.534l10.566,22.381l-17.727,16.396l23.967-3.069L83.618,735.561z
		 M200.747,145.853l8.543,23.356l6.498-23.712l24.632-0.819l-20.77-13.763l6.42-24.097l-19.338,15.247l-20.079-13.456l8.361,22.714
		l-19.208,15.195L200.747,145.853z M273.495,95.13l3.862,24.583l10.974-22.052l24.303,3.889l-17.752-17.472l10.87-22.404
		l-22.049,11.329L266.69,55.916l3.993,23.816l-21.846,11.408L273.495,95.13z M353.636,84.078l14.911-19.566l23.174,8.391
		L377.603,52.36l14.94-19.823l-23.738,6.805l-13.431-19.978l-0.714,24.172l-23.611,6.906l23.432,8.723L353.636,84.078z
		 M39.827,628.127l6.012,23.764l9.565-23.227l24.893,1.791l-19.031-15.603l9.258-22.74l-21.001,13.3L30.083,589.81l6.087,23.967
		l-20.593,12.689L39.827,628.127z M67.581,293.268l22.87-10.155l16.601,18.598l-2.789-24.403l22.434-10.028l-24.326-4.962
		l-3.125-24.71l-12.302,21.461l-23.608-5.141l16.317,17.983L67.581,293.268z M780.45,142.733l6.371,23.736l8.853-23.224
		l24.783,0.688l-19.211-15.449l8.749-22.483l-20.281,13.301l-19.161-15.424l6.293,24.222l-20.9,13.534L780.45,142.733z
		 M819.256,196.911l23.941,5.627l1.637,24.58l12.996-21.256l24.3,5.552l-15.961-18.852l12.868-20.439l-22.41,9.183l-15.936-18.722
		l1.638,24.939L819.256,196.911z M707.578,95.563l10.742,22l4.194-24.378l24.531-3.963L725.278,77.71l4.218-23.787l-17.364,16.982
		l-21.82-11.407l10.82,22.534l-17.827,17.293L707.578,95.563z M893.41,273.418l-3.018,24.276l16.908-18.317l22.714,10.129
		l-12.151-21.614l16.602-17.521l-23.736,4.782l-12.177-21.589l-3.069,24.812l-24.35,4.707L893.41,273.418z M603.726,71.47
		l23.301-8.314l14.735,19.774l-0.64-24.942l23.429-8.491l-23.712-7.187l-0.382-24.172l-13.813,19.925l-23.457-7.111l14.911,20.104
		L603.726,71.47z M977.566,518.52l1.689-24.633l-16.32,19.159l-23.047-9.415l13.225,20.617l-15.808,18.93l24.123-6.24l13.554,20.871
		l1.638-24.658l23.38-5.807L977.566,518.52z M961.069,623.599l24.198-1.125l-20.339-13.121l6.191-23.738l-19.569,15.603
		l-20.845-13.605l9.082,22.969l-19.237,15.399l24.891-1.458l9.385,22.995L961.069,623.599z M913.159,706.988l4.704,24.531
		l10.797-22.281l23.915,3.402l-17.547-16.626l10.769-22.127l-22.229,11.485l-18.033-17.292l4.58,24.045l-21.617,11.587
		L913.159,706.988z M304.857,552.207c-1.921-1.51-25.249,22.28-40.544,38.829c-5.37,5.758-8.876,11.205-10.948,13.763
		c0,0-6.779,11.127-10.334,15.809c-3.604,4.654-12.637,17.955-16.549,23.686c-1.406,1.919-4.965,10.283-11.896,18.931
		c-3.452,4.349-6.955,10.001-13.708,18.672c-9.055,11.587-15.86,21.129-14.327,22.382c0.92,0.665,14.197-15.375,28.419-32.641
		c5.96-7.213,12.38-14.656,17.802-21.689c2.662-3.377,8.749-9.082,10.771-12.024c3.452-5.19,7.288-9.131,8.775-10.357
		c7.953-6.446,12.429-6.958,14.935-10.592c1.255-1.814,16.937-25.501,22.642-35.094
		C295.136,572.798,308.028,555.071,304.857,552.207 M969.355,402.44l-12.33,21.769l-24.349-4.783l16.907,17.906l-11.845,21.357
		l22.407-10.589l17.267,17.827l-3.018-24.554l21.922-10.158l-23.866-4.424L969.355,402.44z M909.346,338.16l20.079,14.221
		l-7.595,23.405l19.873-14.784l20.567,14.271l-7.855-23.532l19.596-14.119l-24.097,0.18l-7.853-23.38l-7.852,23.66L909.346,338.16z
		 M520.107,59.396l21.229-12.51l18.239,16.32l-5.347-24.25l21.178-12.739l-24.558-2.505L545.891,0l-9.721,22.202l-24.43-2.352
		l18.493,16.702L520.107,59.396z M523.302,490.869c2.303,6.776,10.849,46.733,13.328,54.994c2.509,8.236,5.142,8.696,6.524,11.87
		c4.987,12.458,12.099,12.967,15.756,13.991c10.282,3.121,11.127,16.907,17.7,29.186c6.035,11.535,11.815,21.896,17.215,34.455
		c5.421,12.559,33.022,80.601,37.729,91.013c1.663,3.735,14.787,3.735,13.352,0c-3.324-7.496-10.869-26.296-15.524-45.072
		c-3.044-12.175,8.364-3.604,1.1-23.047c-3.351-8.926-9.722-17.88-13.303-21.484c-3.684-3.556-7.213-19.058-10.077-25.914
		c-2.891-6.753-1.433-7.085-7.52-23.354c-4.554-11.818,8.263-7.853,1.073-26.169c-4.681-11.894-28.292-54.943-31.028-59.341
		c-1.331-2.431-5.908-9.849-11.535-18.702c-5.269-8.312-9.669-17.263-12.201-21.151c-4.912-7.878-13.941-25.171-19.03-32.308
		c-5.04-7.213-11.284-23.073-13.969-20.411c-2.482,2.353,7.649,26.143,11.793,41.233c4.427,15.09,1.203,21.203-1.383,25.552
		C520.848,480.432,520.848,483.246,523.302,490.869 M683.66,614.109c6.906,11.561,8.774,9.261,11.662,9.389
		c6.55,0.179,21.184,15.909,24.097,20.208c2.815,4.349,26.424,27.855,32.487,33.61c2.633,2.508,21.306,32.689,23.687,30.543
		c2.558-2.176-7.16-16.833-8.596-20.082c-1.354-3.197-6.753-7.953-9.362-14.81c-2.43-6.701-13.557-23.635-17.162-29.06
		c-3.607-5.346-9.414-17.289-15.808-24.837c-5.885-6.675-1.178-8.491-7.291-14.351c-3.634-3.451-15.042-13.58-17.625-15.729
		c-2.404-2.199-11.767-10.437-17.162-15.144c-5.295-4.501-18.007-13.325-17.6-18.955c0.229-5.807-2.583-16.908-6.905-20.564
		c-3.096-2.61-12.203-17.318-22.665-25.836c-5.243-4.45-16.474-16.063-25.145-26.244c-8.133-9.643-14.22-18.443-16.089-17.188
		c-2.737,1.765,9.389,18.748,10.693,20.796c1.302,1.918,15.296,26.271,16.702,32.69c1.432,6.42,27.679,50.621,33.279,64.358
		C658.082,590.857,676.089,601.602,683.66,614.109 M798.255,656.826c0.92-1.099-1.638-4.322-2.991-6.827
		c-1.484-2.482-10.488-12.356-12.126-15.169c-1.483-2.584-13.045-19.109-17.136-24.505c-7.268-9.313-0.616-12.739-4.427-18.47
		c-1.562-2.558-10.847-13.737-21.641-24.786c-5.549-5.526-11.792-10.898-17.061-15.629c-8.521-7.623-14.989-13.325-16.037-12.33
		c-1.536,1.51,3.553,7.548,5.702,10.334c2.15,2.662,5.575,7.571,10.054,12.944c7.341,8.723,0.562,15.296,7.546,22.279
		c1.175,1.1,20.438,22.715,25.223,26.704c7.03,6.241,32.151,36.118,33.916,37.782C792.22,651.891,797.462,657.877,798.255,656.826
		 M400.395,515.244c1.383-3.018,5.807-12.327,5.549-16.036c0-0.691-1.585-1.817-2.991-0.46c-6.446,6.394-19.621,29.134-24.58,31.691
		c-11.307,5.525-16.219,18.698-19.546,23.865c-2.401,3.889-5.475,10.104-10.818,17.932c-4.732,6.805-10.053,16.882-12.05,20.438
		c-1.993,3.684-2.708,7.033,0.949,7.033c3.631,0,0.815,5.911-3.657,12.383c-2.482,3.836-8.749,22.101-10.542,27.036
		c-2.378,6.14-2.02,13.916-2.888,16.474c-0.845,2.457-12.712,27.804-15.834,33.431c-1.971,3.556-1.357,4.965-2.124,6.932
		c-1.099,2.456,0.258,3.122,2.124,1.357c2.277-2.251,14.989-21.537,18.901-23.892c3.787-2.431,7.32-5.96,7.88-14.272
		c0.562-8.288,5.983-10.54,9.977-15.449c4.218-4.812,9.744-11.307,12.738-18.036c2.763-6.98,6.345-1.687,12.84-12.099
		c6.42-10.485,20.975-36.321,24.276-41.335c3.171-5.014,0.845-12.2,0.434-18.186c-0.153-3.148,0.307-10.873,2.146-19.136
		C395.021,527.575,398.424,520.105,400.395,515.244 M455.978,317.746c5.398,0,13.146-9.77,17.446-18.238
		c4.348-9.258,6.573-14.451,12.099-26.165c0.231-0.666-0.333-0.666-0.92-0.666c-6.218,0-13.097,6.394-17.498,11.562
		c-5.167,6.318-13.632,18.316-14.963,27.014C451.244,315.854,453.241,317.746,455.978,317.746 M594.259,326.035
		c6.064,3.07,13.661-10.334,20.234-22.612c6.551-12.354,11.767-27.702,6.267-29.595c-6.267-2.508-14.17,9.516-20.77,21.844
		C593.519,307.977,588.504,323.299,594.259,326.035 M358.033,317.746c5.45,0,13.123-9.77,17.523-18.238
		c4.375-9.258,6.675-14.451,12.021-26.165c0.258-0.666-0.281-0.666-0.816-0.666c-6.267,0-13.1,6.394-17.497,11.562
		c-5.142,6.318-13.685,18.316-15.016,27.014C353.352,315.854,355.58,317.746,358.033,317.746 M298,206.528
		c42.489,2.022,67.503,22.841,67.503,45.173c-0.052,39.98-63.435,46.785-63.435,46.785c-10.974,55.404-54.917,76.533-85.333,76.2
		c-40.799-0.358-40.183-33.354-38.777-37.651c1.713-4.938,4.195-9.362,9.362-9.362c5.089,0,9.362,4.144,9.362,9.362
		c0,3.171-1.563,6.139-4.273,7.673c-5.373,3.324-4.349,7.47-4.349,7.47c0,17.6,22.688,18.953,28.674,18.953
		c60.75,0,53.792-100.092,107.356-134.112c2.456-1.663,4.374,0,2.89,1.664c-16.728,20.976-23.047,54.738-23.047,54.738
		c25.862,0,42.922-24.558,42.922-41.72c0-29.313-26.423-41.49-48.856-41.49c-62.567,0-89.734,43.716-89.734,67.529
		c0,23.892,15.044,32.487,25.914,32.487c15.192,0,19.925-10.182,18.059-15.117c-2.994-7.751,1.178-14.249,5.858-14.249
		c1.814,0,8.107-0.28,8.107,10.668c0,10.539-15.039,21.229-31.59,21.229c-16.448,0-40.362-8.902-40.362-35.019
		C194.252,224.715,259.504,204.584,298,206.528 M403.386,271.32c-6.727,15.348-11.763,26.296-18.007,40.773
		c-0.538,1.383-1.047,3.761,0.307,4.654c1.076,0.513,2.431,0.513,3.171,0c8.031-3.862,15.067-13.172,20.567-23.813l9.897-21.768
		h13.894l-3.813,8.161c-0.307,0.486-0.307,0.741,0,0.486c4.349-3.275,8.951-8.162,14.503-11.205c2.173-1.024,7.34-1.024,6.779,2.558
		c-0.231,3.171-2.662,5.627-4.091,8.647c-0.77,1.967-1.614,4.424-1.357,5.729c0.588,1.406,2.199,2.251,4.349,0.613
		c2.199-1.38,3.889-2.479,5.855-4.117c3.455-3.35,7.829-6.523,12.765-9.082c9.874-4.629,23.253-7.57,33.052-1.305
		c-6.834,15.297-11.973,26.756-18.574,41.233c-1.175,2.456-0.229,3.249,0.59,3.862c0.897,0.513,2.482,0.77,4.655-0.408
		c5.425-2.303,14.989-12.917,18.803-21.229c3.631-7.675,6.903-15.296,10.716-23.943h14.246l-3.938,8.39l0.564,0.258
		c3.836-3.48,13.785-11.486,21.125-9.799c4.095,0.871,6.064,5.705,5.758,9.313c4.629-3.376,9.438-7.418,16.317-9.107
		c9.877-2.404,13.736,4.427,10.72,10.974c-3.863,9.056-11.483,26.782-15.857,35.887c-0.539,0.949-0.539,2.969,0,3.454
		c1.047,0.819,3.014,0,3.859-0.485c4.912-4.195,7.623-6.88,11.434-12.331c1.05-9.539,6.243-18.313,13.406-25.68
		c7.598-8.494,19.619-15.041,31.18-11.152c4.068,1.305,6.805,5.447,7.878,9.515c0.562,2.149,1.1,3.275,1.1,5.755
		c6.038,4.4,13.942-2.813,17.191-8.185c0.894-2.251,1.967-4.629,2.505-6.319c3.455,0.258,10.282,0,14.275,0L651.353,312.4
		c-1.123,2.406-1.38,3.734-1.38,5.63c0,1.455,1.611,1.738,3.35,1.455c4.887-0.815,12.918-10.485,16.934-18.62
		c4.554-10.129,8.98-18.545,13.453-28.674h14.379c-5.705,13.658-12.227,28.136-16.959,38.776c-1.076,2.202-2.379,4.374-1.664,7.418
		c0.588,1.383,2.531,1.1,3.684,0.591c6.243-3.635,16.985-15.554,20.694-22.946c3.914-8.774,6.802-15.296,10.869-23.839h14.889
		l-3.605,8.543c5.523-4.4,11.457-9.082,18.595-10.259c3.275-0.46,7.369-0.255,9.284,3.069c2.176,3.813,0.845,7.855-0.793,11.512
		c-4.091,9.284-8.798,19.391-12.915,28.42c-0.718,2.225-0.972,4.27,0.562,5.193c2.228,1.38,12.56-4.965,17.827-16.475
		c4.554-10.079,7.676-16.039,11.718-25.861h-7.598l2.124-4.424h7.698l10.922-23.764h14.683l-10.563,23.764h11.101l-2.124,4.424
		h-10.869c-6.345,13.303-11.613,24.531-17.063,37.143c-2.147,4.27-4.346,11.485-3.197,15.883c0.845,2.431,3.862,3.021,6.576,2.15
		c8.466-2.995,14.193-10.155,19.106-17.805c0.254-0.819,4.681-0.229,4.397,0.332c-5.83,11.46-18.389,22.998-30.338,22.715
		c-3.578,0-7.493-2.225-9.616-5.242c-1.048-1.612-1.638-2.995-2.225-4.887c-0.768-3.096-0.536-6.573,0-9.875
		c-6.496,4.913-12.739,10.925-20.95,12.611c-3.604,0.538-8.185-0.845-9.029-4.707c-0.564-2.991-0.257-6.267,0.845-8.951
		c5.167-11.254,9.771-21.36,14.683-33.15c0.359-0.512,0-2.481-0.538-2.736c-0.845-0.744-3.246-0.744-5.422,0.92
		c-10.132,7.598-15.27,17.445-19.621,27.549c-3.096,6.805-6.417,13.609-9.691,20.231h-14.507c1.716-4.016,4.146-9.538,6.038-13.913
		c0-0.307-0.258-0.307-0.258,0c-5.96,5.934-13.707,12.687-21.281,14.758c-3.016,0.793-6.088-0.254-7.621-3.069
		c-1.738-2.763-2.225-6.805-0.718-10.436c0-0.153-0.15-0.153-0.485,0c-5.396,5.5-10.642,10.436-17.932,12.892
		c-8.286,2.584-15.679-3.249-10.462-15.27c1.409-3.249,5.525-12.331,10.054-23.227c-3.759,1.56-8.391,1.56-10.87,0.818
		c-0.283,0-0.283,0-0.283,0.229c-3.223,15.297-12.278,29.238-26.27,35.838c-6.776,3.301-14.478,4.195-21.256-0.512
		c-3.302-2.124-5.269-7.444-5.474-12.021c-7.086,7.06-15.065,16.063-26.013,14.504c-1.638-0.359-2.969-1.817-3.813-3.302
		c-2.453-4.143-1.024-8.543,0.538-12.099c5.22-10.844,9.542-21.051,14.709-33.304c0.868-1.712-1.458-2.968-3.174-2.175
		c-5.142,2.508-8.39,4.938-11.205,9.361c-1.557,2.431-3.145,5.142-4.346,7.777c-4.809,10.461-9.9,21.383-14.249,31.923H519.85
		c6.576-14.888,12.893-29.415,19.391-44.176c0.662-1.331,0.254-3.298-0.486-3.784c-1.331-0.639-3.631,0.486-5.167,1.406
		c-3.556,2.378-6.651,5.627-9.03,9.822c-2.482,4.068-4.707,8.133-6.445,12.611l-11.052,24.12h-14.452
		c1.357-3.171,4.068-9.542,5.731-12.687c0-0.307-0.257-0.564-0.257-0.307c-7.953,6.547-18.085,15.064-25.478,13.658
		c-2.456-0.28-4.603-2.456-5.216-4.654c-0.486-2.764-0.284-5.269,0.329-7.598c0-0.359-0.329-0.359-0.613,0
		c-6.318,5.96-11.995,10.922-19.925,12.813c-4.604,1.076-8.827-1.892-10.309-5.216c-2.021-3.813-2.558-9.822,0.741-16.705
		c1.918-4.398,4.067-8.978,6.778-12.788c-1.638,0.819-4.86,1.1-7.085,0.819c-1.869-0.284-3.837-1.69-4.785-3.096
		c-1.175-1.279-1.406-3.735-1.406-5.373c0.231-0.307-0.588-0.307-1.151,0c-4.398,3.48-6.29,7.649-8.492,12.252l-12.582,28.446
		h-14.761l5.448-12.048c0.28-0.205,0-0.512-0.281-0.205c-7.672,6.753-16.855,14.504-24.303,13.071
		c-2.172-0.385-4.397-2.509-4.909-4.632c-0.564-2.506-0.307-5.295,0-7.699h-0.564c-6.035,6.013-11.763,10.948-19.592,12.611
		c-4.45,1.406-8.495-1.33-10.23-5.167c-2.176-5.525-1.356-11.202,0.587-16.447c5.65-14.81,16.142-25.399,30.312-33.382
		C379.599,267.816,393.566,266.205,403.386,271.32 M85.64,500.307c0,62.542,16.575,133.014,46.195,190.798
		c53.489-49.907,193.893-208.318,210.008-226.763c24.479-28.008,35.019-10.181,48.191-25.861
		c7.063-8.593,11.153-11.894,14.249-13.606c5.04-2.994,10.794-10.155,13.658-12.305c2.916-2.149,9.411-10.742,14.428-15.091
		c5.09-4.299,15.091-10.794,25.22-19.416c10.077-8.645,27.216-28.775,45.967-28.775c22.254,0,31.538,15.091,33.482,16.908
		c1.663,1.791,15.374,13.863,17.573,16.189c2.482,2.688,17.165,14.301,25.095,14.301c7.904,0,13.76,8.672,17.984,12.941
		c9.385,8.622,48.394,49.522,61.158,58.245c5.731,3.914,11.101,3.223,15.371,6.498c4.427,3.223,6.498,5.32,9.032,6.062
		c2.401,0.691,10.742-1.433,20.461,10.719c4.53,3.096,5.73,3.604,5.73,3.604s13.202,12.024,17.981,20.489
		c4.247,7.317,102.909,138.311,138.231,185.197c32.742-59.396,51.467-127.644,51.467-200.235
		c0-229.73-186.218-415.717-415.845-415.717C271.678,84.616,85.64,270.707,85.64,500.307"/>
	<path d="M155.27,884.561l-5.578-13.635l-5.578,13.635H155.27z M145.549,859.824h8.517l18.033,42.31h-9.669l-3.862-9.414h-17.752
		l-3.862,9.414h-9.389L145.549,859.824z"/>
	<polygon points="195.938,860.131 206.172,860.131 217.143,889.729 228.119,860.131 238.095,860.131 221.083,902.414 
		212.924,902.414 	"/>
	<path d="M244.384,902.16h9.108v-32.207h-9.108V902.16z M244.13,866.449h9.617v-8.158h-9.617V866.449z"/>
	<path d="M282.551,890.802v-1.638c-1.585-0.691-3.634-1.201-5.858-1.201c-3.886,0-6.267,1.586-6.267,4.45v0.101
		c0,2.482,2.022,3.915,4.961,3.915C279.658,896.429,282.551,894.103,282.551,890.802 M261.575,892.898v-0.127
		c0-7.036,5.347-10.259,12.967-10.259c3.252,0,5.578,0.538,7.881,1.305v-0.535c0-3.787-2.355-5.885-6.932-5.885
		c-3.454,0-5.907,0.665-8.876,1.739l-2.277-6.955c3.556-1.563,7.01-2.584,12.484-2.584c4.988,0,8.593,1.328,10.87,3.604
		c2.404,2.404,3.503,5.935,3.503,10.259v18.673h-8.85v-3.48c-2.225,2.456-5.268,4.094-9.695,4.094
		C266.563,902.747,261.575,899.244,261.575,892.898"/>
	<path d="M298.972,886.222v-0.128c0-9.156,7.007-16.728,16.855-16.728c6.064,0,9.849,2.046,12.843,5.398l-5.575,6.009
		c-2.049-2.172-4.097-3.556-7.32-3.556c-4.577,0-7.8,4.042-7.8,8.775v0.101c0,4.939,3.171,8.902,8.136,8.902
		c3.067,0,5.167-1.33,7.392-3.428l5.343,5.398c-3.119,3.428-6.724,5.882-13.146,5.882
		C306.032,902.849,298.972,895.431,298.972,886.222"/>
	<path d="M359.621,886.222v-0.128c0-4.729-3.402-8.876-8.441-8.876c-5.217,0-8.339,4.042-8.339,8.775v0.101
		c0,4.733,3.402,8.902,8.469,8.902C356.5,894.996,359.621,890.98,359.621,886.222 M333.835,886.222v-0.128
		c0-9.209,7.446-16.728,17.475-16.728c9.946,0,17.342,7.392,17.342,16.627v0.101c0,9.262-7.444,16.755-17.472,16.755
		C341.203,902.849,333.835,895.482,333.835,886.222"/>
	<path d="M376.734,869.953h9.104v4.58c2.098-2.711,4.887-5.167,9.493-5.167c4.218,0,7.389,1.843,9.053,5.089
		c2.838-3.298,6.19-5.089,10.592-5.089c6.775,0,10.843,4.094,10.843,11.845v20.923h-9.131v-17.958c0-4.322-1.892-6.547-5.347-6.547
		c-3.402,0-5.525,2.225-5.525,6.547v17.958h-9.104v-17.958c0-4.322-1.919-6.547-5.347-6.547c-3.429,0-5.526,2.225-5.526,6.547
		v17.958h-9.104V869.953z"/>
	<path d="M434.337,881.233v-0.127c0-11.946,9.004-21.716,21.896-21.716c7.933,0,12.663,2.658,16.578,6.472l-5.908,6.805
		c-3.252-2.942-6.524-4.759-10.719-4.759c-7.086,0-12.201,5.907-12.201,13.097v0.102c0,7.213,4.988,13.225,12.201,13.225
		c4.782,0,7.75-1.918,11.049-4.909l5.858,5.934c-4.322,4.629-9.104,7.493-17.214,7.493
		C443.52,902.849,434.337,893.333,434.337,881.233"/>
	<path d="M501.638,884.789h-10.667v9.262h10.974c4.091,0,6.55-1.459,6.55-4.606v-0.101
		C508.494,886.531,506.423,884.789,501.638,884.789 M506.139,872.537c0-2.764-2.146-4.322-6.034-4.322h-9.134v8.876h8.52
		c4.092,0,6.648-1.305,6.648-4.424V872.537z M481.967,860.131h19.518c4.782,0,8.569,1.305,10.974,3.709
		c1.918,1.918,2.89,4.273,2.89,7.138v0.127c0,4.733-2.531,7.369-5.525,9.056c4.86,1.866,7.854,4.682,7.854,10.309v0.127
		c0,7.676-6.243,11.538-15.732,11.538h-19.978V860.131z"/>
	<path d="M523.918,896.021l5.474-6.55c3.758,3.121,7.725,5.092,12.507,5.092c3.787,0,6.064-1.484,6.064-3.94v-0.128
		c0-2.328-1.436-3.555-8.442-5.346c-8.466-2.15-13.939-4.502-13.939-12.84v-0.127c0-7.624,6.14-12.664,14.709-12.664
		c6.11,0,11.355,1.918,15.6,5.347l-4.809,6.984c-3.709-2.61-7.365-4.172-10.921-4.172c-3.53,0-5.396,1.611-5.396,3.659v0.128
		c0,2.763,1.817,3.683,9.079,5.525c8.518,2.199,13.303,5.269,13.303,12.611v0.102c0,8.364-6.345,13.045-15.4,13.045
		C535.377,902.747,528.955,900.522,523.918,896.021"/>
	<path d="M584.335,881.233v-0.127c0-11.946,9.004-21.716,21.896-21.716c7.931,0,12.66,2.658,16.578,6.472l-5.885,6.805
		c-3.249-2.942-6.55-4.759-10.745-4.759c-7.083,0-12.175,5.907-12.175,13.097v0.102c0,7.213,4.965,13.225,12.175,13.225
		c4.785,0,7.754-1.918,11.052-4.909l5.855,5.934c-4.322,4.629-9.104,7.493-17.214,7.493
		C593.519,902.849,584.335,893.333,584.335,881.233"/>
	<path d="M654.653,886.222v-0.128c0-4.729-3.402-8.876-8.468-8.876c-5.217,0-8.313,4.042-8.313,8.775v0.101
		c0,4.733,3.402,8.902,8.439,8.902C651.531,894.996,654.653,890.98,654.653,886.222 M628.844,886.222v-0.128
		c0-9.209,7.443-16.728,17.469-16.728c9.952,0,17.344,7.392,17.344,16.627v0.101c0,9.262-7.443,16.755-17.471,16.755
		C636.235,902.849,628.844,895.482,628.844,886.222"/>
	<path d="M671.74,869.953h9.134v4.58c2.12-2.711,4.857-5.167,9.46-5.167c4.225,0,7.396,1.843,9.085,5.089
		c2.813-3.298,6.162-5.089,10.563-5.089c6.801,0,10.846,4.094,10.846,11.845v20.923h-9.107v-17.958c0-4.322-1.918-6.547-5.347-6.547
		c-3.402,0-5.525,2.225-5.525,6.547v17.958h-9.105v-17.958c0-4.322-1.918-6.547-5.347-6.547c-3.402,0-5.522,2.225-5.522,6.547
		v17.958h-9.134V869.953z"/>
	<path d="M754.924,886.094v-0.101c0-5.347-3.607-8.876-7.854-8.876c-4.271,0-7.8,3.529-7.8,8.876v0.101
		c0,5.347,3.529,8.902,7.8,8.902C751.316,894.996,754.924,891.519,754.924,886.094 M730.24,869.953h9.133v4.632
		c2.223-2.994,5.295-5.219,10.028-5.219c7.493,0,14.628,5.885,14.628,16.627v0.101c0,10.769-7.008,16.627-14.628,16.627
		c-4.89,0-7.855-2.225-10.028-4.782v13.813h-9.133V869.953z"/>
	<path d="M791.271,890.802v-1.638c-1.557-0.691-3.604-1.201-5.829-1.201c-3.915,0-6.293,1.586-6.293,4.45v0.101
		c0,2.482,2.045,3.915,4.988,3.915C788.406,896.429,791.271,894.103,791.271,890.802 M770.324,892.898v-0.127
		c0-7.036,5.347-10.259,12.967-10.259c3.249,0,5.578,0.538,7.853,1.305v-0.535c0-3.787-2.326-5.885-6.88-5.885
		c-3.478,0-5.934,0.665-8.876,1.739l-2.304-6.955c3.559-1.563,7.036-2.584,12.484-2.584c4.988,0,8.596,1.328,10.869,3.604
		c2.382,2.404,3.48,5.935,3.48,10.259v18.673h-8.826v-3.48c-2.223,2.456-5.295,4.094-9.719,4.094
		C775.313,902.747,770.324,899.244,770.324,892.898"/>
	<path d="M809.28,869.953h9.105v4.58c2.123-2.711,4.808-5.167,9.414-5.167c6.932,0,10.947,4.554,10.947,11.945v20.822h-9.131
		v-17.958c0-4.322-2.048-6.547-5.525-6.547s-5.705,2.225-5.705,6.547v17.958h-9.105V869.953z"/>
	<path d="M868.367,869.953h9.49l-12.354,32.974c-2.482,6.547-5.115,9.003-10.565,9.003c-3.299,0-5.752-0.845-8.106-2.225l3.043-6.6
		c1.204,0.689,2.714,1.253,3.915,1.253c1.56,0,2.404-0.485,3.196-2.097l-12.637-32.309h9.669l7.343,21.898L868.367,869.953z"/>
	<path d="M887.45,776.742l7.979-20.797h8.188v29.316h-5.346v-22.919h-0.128l-8.774,22.919h-3.964l-8.775-22.919h-0.127v22.919
		h-5.347v-29.316h8.237L887.45,776.742z M865.174,760.578h-8.955v24.684h-5.705v-24.684h-8.954v-4.633h23.614V760.578z"/>
	<rect x="104.006" y="816.826" width="788.638" height="5.882"/>
</g>
</svg>
